<?xml version="1.0" encoding="UTF-8"?>
<svg xmlns="http://www.w3.org/2000/svg" xmlns:xlink="http://www.w3.org/1999/xlink" viewBox="0 0 50 50" width="50px" height="50px">
<g id="surface12951182">
<path style=" stroke:none;fill-rule:nonzero;fill:rgb(100%,100%,100%);fill-opacity:1;" d="M 24.5 12 C 23.117188 12 22 10.882812 22 9.5 L 22 6.5 C 22 5.117188 23.117188 4 24.5 4 C 25.882812 4 27 5.117188 27 6.5 L 27 9.5 C 27 10.882812 25.882812 12 24.5 12 Z M 24.5 47 C 23.117188 47 22 45.882812 22 44.5 L 22 41.5 C 22 40.117188 23.117188 39 24.5 39 C 25.882812 39 27 40.117188 27 41.5 L 27 44.5 C 27 45.882812 25.882812 47 24.5 47 Z M 24.5 36 C 23.117188 36 22 34.882812 22 33.5 L 22 17.5 C 22 16.117188 23.117188 15 24.5 15 C 25.882812 15 27 16.117188 27 17.5 L 27 33.5 C 27 34.882812 25.882812 36 24.5 36 Z M 33.5 12 C 32.117188 12 31 13.117188 31 14.5 L 31 17.5 C 31 18.882812 32.117188 20 33.5 20 C 34.882812 20 36 18.882812 36 17.5 L 36 14.5 C 36 13.117188 34.882812 12 33.5 12 Z M 33.5 23 C 32.117188 23 31 24.117188 31 25.5 L 31 35.5 C 31 36.882812 32.117188 38 33.5 38 C 34.882812 38 36 36.882812 36 35.5 L 36 25.5 C 36 24.117188 34.882812 23 33.5 23 Z M 41.5 21 C 40.117188 21 39 22.117188 39 23.5 L 39 26.5 C 39 27.882812 40.117188 29 41.5 29 C 42.882812 29 44 27.882812 44 26.5 L 44 23.5 C 44 22.117188 42.882812 21 41.5 21 Z M 15.5 38 C 14.117188 38 13 36.882812 13 35.5 L 13 32.5 C 13 31.117188 14.117188 30 15.5 30 C 16.882812 30 18 31.117188 18 32.5 L 18 35.5 C 18 36.882812 16.882812 38 15.5 38 Z M 15.5 27 C 14.117188 27 13 25.882812 13 24.5 L 13 14.5 C 13 13.117188 14.117188 12 15.5 12 C 16.882812 12 18 13.117188 18 14.5 L 18 24.5 C 18 25.882812 16.882812 27 15.5 27 Z M 7.5 21 C 8.882812 21 10 22.117188 10 23.5 L 10 26.5 C 10 27.882812 8.882812 29 7.5 29 C 6.117188 29 5 27.882812 5 26.5 L 5 23.5 C 5 22.117188 6.117188 21 7.5 21 Z M 7.5 21 "/>
</g>
</svg>
